<svg version="1.1" xmlns="http://www.w3.org/2000/svg"  x="0px" y="0px" viewBox="0 0 1000 1000" enable-background="new 0 0 1000 1000" xml:space="preserve">
        <g transform="translate(0.000000,512.000000) scale(0.100000,-0.100000)">
            <path d="M4703.1,5016c-540.2-82.4-837.1-185.8-1162.8-404.2c-264.4-176.2-570.8-521-570.8-643.6c0-30.7,91.9-321.8,205-647.5l203.1-593.8l-97.7-205c-206.9-432.9-237.5-624.5-243.3-1517.2c-7.7-852.5-30.7-1053.6-176.2-1503.8c-74.7-233.7-176.2-417.6-298.8-549.8l-47.9-51.7l139.8-59.4c233.7-95.8,448.3-139.8,699.2-137.9c189.6,1.9,530.6,40.2,637.9,72.8c28.7,9.6,32.6-7.7,32.6-168.6c-1.9-195.4-36.4-427.2-82.4-534.4c-15.3-38.3-59.4-114.9-97.7-170.5c-65.1-93.9-69-109.2-69-247.1c0-323.7,99.6-544,373.5-816.1c235.6-237.5,482.7-406.1,756.7-515.3l86.2-34.5l-609.2-304.6c-701.1-352.5-620.7-341-798.8-114.9c-249,312.2-390.8,762.4-415.7,1329.4c-5.7,134.1-13.4,243.3-15.3,243.3c-3.8,0-168.6-74.7-365.9-164.7C2140-3016.2,1751.1-3248,1481-3502.8c-304.6-289.3-427.2-547.9-427.2-898.4c0-239.5,30.7-318,134.1-354.4c97.7-32.6,7526.5-32.6,7624.2,0c101.5,34.5,134.1,116.9,134.1,339.1c0,354.4-99.6,578.5-383.1,863.9c-281.6,285.4-632.2,501.9-1339,823.7c-203,93.9-371.6,170.5-375.4,170.5c-1.9,0-9.6-109.2-15.3-243.3c-26.8-582.3-172.4-1030.6-434.9-1356.2c-157.1-191.6-90-205-779.7,141.8l-609.2,304.6l86.2,34.5c270.1,109.2,519.1,277.8,756.7,515.3c273.9,272,373.5,492.3,373.5,816.1c0,136-5.7,155.2-63.2,239.5c-36.4,51.7-78.5,120.7-95.8,153.3c-46,90-90,358.2-90,557.4c0,162.8,3.8,180.1,34.5,170.5c109.2-34.5,448.3-72.8,645.6-72.8c252.9,0,490.4,49.8,706.9,145.6l111.1,49.8l-67,82.4c-185.8,228-331.4,616.8-408,1101.5c-23,137.9-32.6,369.7-36.4,904.2c-7.7,915.7-34.5,1095.7-243.3,1536.3l-97.7,206.9l205,591.9c111.1,325.7,203,616.8,203,647.5c0,120.7-306.5,467.4-565.1,639.8c-415.7,275.8-821.8,396.5-1388.8,409.9C4902.3,5021.7,4735.6,5019.8,4703.1,5016z M5517.2,4673.1c300.8-61.3,616.8-197.3,835.2-362.1c143.7-107.3,352.5-327.6,352.5-369.7c0-26.8-413.8-1250.9-427.2-1264.3c-3.8-1.9-92,38.3-195.4,92c-373.5,185.8-674.3,256.7-1091.9,256.7c-400.4-1.9-712.6-76.6-1072.7-256.7c-103.4-53.6-191.6-93.9-193.5-92c-13.4,13.4-429.1,1235.6-429.1,1260.5c0,51.7,235.6,291.2,392.7,398.4c268.2,185.8,611.1,316.1,957.8,364C4825.7,4724.8,5339.1,4709.5,5517.2,4673.1z" />
            <path d="M4837.2,4391.5c-5.7-13.4-11.5-93.9-13.4-178.2l-5.7-153.2l-172.4-9.6l-172.4-9.6v-162.8v-162.8l172.4-9.6l172.4-9.6l9.6-172.4l9.6-172.4H5000h162.8l9.6,172.4l9.6,172.4l172.4,9.6l172.4,9.6v162.8v162.8l-172.4,9.6l-172.4,9.6l-9.6,172.4l-9.6,172.4l-159,5.7C4888.9,4414.5,4842.9,4408.7,4837.2,4391.5z" />
        </g>
</svg>